<?xml version="1.0" encoding="UTF-8"?>
    <!-- Generator: Sketch 59 (86127) - https://sketch.com -->
    <svg version="1.1" id="Layer_1" xmlns="http://www.w3.org/2000/svg" xmlns:xlink="http://www.w3.org/1999/xlink" x="0px" y="0px"
	 width="217px" height="237px" viewBox="0 0 512 512" enable-background="new 0 0 512 512" xml:space="preserve">
<path fill="#000000" opacity="1.000000" stroke="none" 
	d="
M226.000000,513.000000 
	C151.032761,513.000000 76.065521,513.000000 1.049138,513.000000 
	C1.049138,342.440643 1.049138,171.881271 1.049138,1.000000 
	C86.355080,1.000000 171.710556,1.000000 257.540405,1.384874 
	C259.207397,5.286548 260.408447,8.800518 261.589691,12.321139 
	C262.389557,14.705129 261.914032,16.198254 258.754120,15.643003 
	C248.100525,11.693727 237.582062,11.318954 226.813492,13.804555 
	C214.076675,16.744474 203.135468,23.031765 192.612762,31.013020 
	C190.372711,31.579720 188.534683,32.157551 186.688126,32.706703 
	C168.346802,38.161293 150.936035,45.745358 134.314697,55.231148 
	C116.973099,65.127968 101.144089,77.062096 86.792023,90.858986 
	C79.682030,97.693939 72.776810,104.933365 66.918381,112.834641 
	C57.770828,125.171936 48.889503,137.818268 41.167416,151.074646 
	C29.642107,170.859924 21.785522,192.344894 17.262390,214.763794 
	C14.499549,228.457809 12.845694,242.505981 12.191451,256.465302 
	C11.136928,278.965210 12.250170,301.366547 17.837587,323.467285 
	C22.280256,341.040039 27.504511,358.210083 35.944191,374.655884 
	C43.233044,387.200989 49.737972,399.949432 57.994469,411.439209 
	C66.038483,422.633301 75.874550,432.539612 85.096756,443.302185 
	C97.502930,453.352173 109.736160,463.111328 122.263748,473.055542 
	C127.353424,476.188812 132.148743,479.136963 137.172363,482.340576 
	C142.311264,485.032745 147.221893,487.469482 152.449463,490.074829 
	C175.184891,501.055878 198.712509,508.084930 223.440704,511.091583 
	C224.357590,511.203064 225.149719,512.340637 226.000000,513.000000 
z"/>
<path fill="#000000" opacity="1.000000" stroke="none" 
	d="
M266.000000,0.999999 
	C348.296844,1.000000 430.593719,1.000000 512.945312,1.000000 
	C512.945312,171.554565 512.945312,342.109161 512.945312,513.000000 
	C438.312225,513.000000 363.623962,513.000000 288.129181,512.662720 
	C287.826141,511.907196 288.276367,511.222931 288.840973,511.109924 
	C300.866638,508.702240 313.181091,507.275391 324.867432,503.757751 
	C337.868103,499.844452 350.298981,494.038239 363.338287,488.994446 
	C368.483093,486.317810 373.267548,483.702820 378.400696,481.012299 
	C383.501343,477.983734 388.253265,475.030701 393.314117,471.923218 
	C404.674561,463.078644 416.151062,454.866425 426.636993,445.540375 
	C434.394745,438.640717 441.242737,430.600403 447.823090,422.520264 
	C459.864410,407.734436 470.402649,391.914215 478.368835,374.104126 
	C481.136627,368.076355 483.772552,362.351776 486.086975,356.500000 
	C494.968872,334.043060 500.432892,310.696289 501.790588,286.648132 
	C502.600494,272.302734 501.501862,257.833862 500.957031,243.431961 
	C500.358734,227.615662 496.586517,212.373978 492.093445,197.263824 
	C486.629059,178.887161 478.985199,161.507172 469.465485,144.877365 
	C460.046600,128.423691 448.767487,113.330528 435.881378,99.539398 
	C421.554810,84.206734 405.349365,71.000801 387.453308,59.927231 
	C370.612152,49.506386 352.965240,40.847088 333.868713,34.660179 
	C330.182617,30.439682 326.953644,26.170969 323.036438,22.672998 
	C314.516296,15.064724 304.675934,11.115220 293.028931,13.861214 
	C289.749329,14.634432 286.531555,15.669881 283.985535,16.387686 
	C280.568054,13.355750 277.552734,10.607018 274.455170,7.954356 
	C271.683929,5.581193 268.821930,3.313966 266.000000,0.999999 
z"/>
<path fill="#414051" opacity="1.000000" stroke="none" 
	d="
M265.555847,0.999999 
	C268.821930,3.313966 271.683929,5.581193 274.455170,7.954356 
	C277.552734,10.607018 280.568054,13.355750 283.985535,16.387686 
	C286.531555,15.669881 289.749329,14.634432 293.028931,13.861214 
	C304.675934,11.115220 314.516296,15.064724 323.036438,22.672998 
	C326.953644,26.170969 330.182617,30.439682 333.872314,35.010921 
	C337.505096,40.517807 340.939056,45.409607 344.483948,50.219666 
	C351.401886,59.606632 358.485107,68.847107 368.954163,74.685898 
	C371.674347,76.202988 371.692505,77.970604 369.159180,79.503769 
	C365.132355,81.940796 360.957642,84.133446 355.648773,87.097679 
	C360.132599,90.339653 364.001373,93.136894 368.669434,96.512070 
	C363.333069,103.978302 357.802917,111.202507 352.854919,118.805557 
	C349.095764,124.581810 346.077057,130.839920 342.496216,137.156158 
	C341.488617,140.126175 340.672913,142.812714 339.946136,145.523117 
	C337.339203,155.245468 334.817719,164.991272 332.122131,174.688812 
	C331.648071,176.394135 331.276062,179.008408 328.278961,177.132935 
	C328.518860,168.431870 328.637024,160.112701 328.912994,151.798767 
	C329.425232,136.368210 325.546631,123.307449 312.293823,113.406586 
	C301.883911,105.629608 296.744507,94.164581 295.824463,81.012833 
	C295.727020,79.620079 294.854156,78.281570 293.931427,75.829330 
	C280.554962,94.590797 262.279388,103.423820 241.866730,108.707794 
	C241.136353,105.450806 240.322983,102.570435 240.048294,99.639580 
	C239.291122,91.560936 243.398758,84.978470 246.869965,78.170937 
	C254.060135,64.069977 252.426514,58.953388 240.606979,48.513519 
	C232.199127,41.087124 231.510040,35.137890 239.282333,28.466532 
	C243.840591,24.553938 249.619049,22.070063 254.815140,18.888798 
	C256.270325,17.997892 257.606567,16.912739 258.997375,15.916685 
	C261.914032,16.198254 262.389557,14.705129 261.589691,12.321139 
	C260.408447,8.800518 259.207397,5.286548 258.007385,1.384874 
	C260.370575,1.000000 262.741119,1.000000 265.555847,0.999999 
z"/>
<path fill="#FBCC68" opacity="1.000000" stroke="none" 
	d="
M362.977905,489.056091 
	C350.298981,494.038239 337.868103,499.844452 324.867432,503.757751 
	C313.181091,507.275391 300.866638,508.702240 288.840973,511.109924 
	C288.276367,511.222931 287.826141,511.907196 287.661316,512.662720 
	C272.312439,513.000000 256.624878,513.000000 240.456573,512.531433 
	C239.974365,501.086731 240.293167,490.098816 239.888733,479.137543 
	C239.405197,466.033264 245.108398,457.239960 257.442932,452.089172 
	C279.370453,452.069336 300.829346,452.111542 322.172607,452.539795 
	C321.752014,455.635162 321.447113,458.344421 321.087219,461.513794 
	C321.016602,465.610352 320.965424,469.247040 320.993073,472.883118 
	C321.045746,479.810211 324.632965,483.940369 330.731903,484.163971 
	C337.029053,484.394806 341.502594,480.247192 341.840637,473.468292 
	C342.045715,469.355377 341.745697,465.217224 341.711487,460.688171 
	C341.207855,457.556366 340.665253,454.826843 340.579224,452.054932 
	C343.867096,452.008179 346.698547,451.990845 349.529846,452.001892 
	C358.534821,452.037018 362.605286,456.059296 362.727295,465.092651 
	C362.835175,473.080139 362.896179,481.068268 362.977905,489.056091 
z"/>
<path fill="#EFAA43" opacity="1.000000" stroke="none" 
	d="
M256.974304,452.151245 
	C245.108398,457.239960 239.405197,466.033264 239.888733,479.137543 
	C240.293167,490.098816 239.974365,501.086731 239.987915,512.531433 
	C235.643097,513.000000 231.286194,513.000000 226.464630,513.000000 
	C225.149719,512.340637 224.357590,511.203064 223.440704,511.091583 
	C198.712509,508.084930 175.184891,501.055878 152.401031,489.614899 
	C152.024277,480.336639 151.950043,471.686401 152.021881,463.037354 
	C152.076767,456.429047 156.368393,452.122559 162.895126,452.017883 
	C166.551941,451.959229 170.211411,452.067261 173.782333,452.455139 
	C173.282867,455.259430 172.870758,457.708710 172.334671,460.596985 
	C172.194748,465.501556 171.867996,469.993164 172.238052,474.426575 
	C172.751968,480.583405 177.347900,484.434479 183.220108,484.219635 
	C189.125259,484.003601 192.934677,479.869751 193.004303,473.433441 
	C193.049011,469.300568 192.913605,465.165680 192.916046,460.611816 
	C192.530945,457.511383 192.088715,454.830780 192.134094,452.090210 
	C214.072556,452.070526 235.523422,452.110901 256.974304,452.151245 
z"/>
<path fill="#64C0F4" opacity="1.000000" stroke="none" 
	d="
M35.926826,374.308380 
	C27.504511,358.210083 22.280256,341.040039 17.837587,323.467285 
	C12.250170,301.366547 11.136928,278.965210 12.191451,256.465302 
	C12.845694,242.505981 14.499549,228.457809 17.262390,214.763794 
	C21.785522,192.344894 29.642107,170.859924 41.167416,151.074646 
	C48.889503,137.818268 57.770828,125.171936 66.918381,112.834641 
	C72.776810,104.933365 79.682030,97.693939 86.792023,90.858986 
	C101.144089,77.062096 116.973099,65.127968 134.314697,55.231148 
	C150.936035,45.745358 168.346802,38.161293 186.688126,32.706703 
	C188.534683,32.157551 190.372711,31.579720 192.662109,31.359022 
	C188.897720,36.412151 184.777786,41.207729 180.453751,45.811630 
	C172.973343,53.776218 164.709717,60.695747 153.933289,63.773449 
	C148.147552,65.425827 147.434860,66.724861 151.153244,71.587776 
	C153.234146,74.309219 156.104813,76.433235 158.660431,78.782066 
	C159.685974,79.724617 160.820969,80.548088 162.320145,81.760597 
	C160.510193,83.372375 159.368149,85.023613 157.814102,85.645866 
	C154.185623,87.098740 153.870209,89.249962 154.937164,92.688072 
	C159.603271,107.723900 164.048370,122.828316 168.309891,138.179260 
	C163.223434,142.862152 162.999847,148.334778 164.731033,154.059448 
	C166.743271,160.713394 169.404144,167.188232 171.122787,173.909744 
	C173.420578,182.896301 177.654282,186.476547 186.991669,186.530975 
	C190.298538,196.460663 193.115433,206.192474 196.972473,215.492920 
	C200.062881,222.944870 204.416214,229.873062 208.093964,237.393066 
	C206.222366,242.169418 204.465927,246.586411 202.414093,250.825714 
	C201.063599,250.175201 200.029251,249.647766 198.950348,249.237534 
	C176.787292,240.810745 157.437302,245.661484 145.237579,263.917267 
	C143.777420,266.102264 141.152466,267.990631 138.658646,268.921997 
	C126.006340,273.647369 115.665802,280.714264 110.624130,294.124542 
	C102.107460,297.356415 93.992805,300.671143 85.798630,303.776031 
	C74.095627,308.210510 65.357468,315.957825 59.740253,327.075623 
	C53.024784,340.367096 46.563339,353.786682 39.942490,367.126282 
	C38.724564,369.580170 37.271404,371.917328 35.926826,374.308380 
z"/>
<path fill="#2D2D43" opacity="1.000000" stroke="none" 
	d="
M168.573685,137.907837 
	C164.048370,122.828316 159.603271,107.723900 154.937164,92.688072 
	C153.870209,89.249962 154.185623,87.098740 157.814102,85.645866 
	C159.368149,85.023613 160.510193,83.372375 162.320145,81.760597 
	C160.820969,80.548088 159.685974,79.724617 158.660431,78.782066 
	C156.104813,76.433235 153.234146,74.309219 151.153244,71.587776 
	C147.434860,66.724861 148.147552,65.425827 153.933289,63.773449 
	C164.709717,60.695747 172.973343,53.776218 180.453751,45.811630 
	C184.777786,41.207729 188.897720,36.412151 193.060165,31.356842 
	C203.135468,23.031765 214.076675,16.744474 226.813492,13.804555 
	C237.582062,11.318954 248.100525,11.693727 258.754120,15.643003 
	C257.606567,16.912739 256.270325,17.997892 254.815140,18.888798 
	C249.619049,22.070063 243.840591,24.553938 239.282333,28.466532 
	C231.510040,35.137890 232.199127,41.087124 240.606979,48.513519 
	C252.426514,58.953388 254.060135,64.069977 246.869965,78.170937 
	C243.398758,84.978470 239.291122,91.560936 240.048294,99.639580 
	C240.322983,102.570435 241.136353,105.450806 241.821777,108.885422 
	C241.939621,109.416626 241.890396,109.779709 241.497986,109.824478 
	C233.527542,111.585602 225.978668,113.447609 218.362106,114.971443 
	C212.448990,116.154472 212.438690,115.969131 212.959137,109.729462 
	C213.018127,109.022446 212.559036,108.272209 212.082748,106.683044 
	C200.622818,113.410522 190.740479,120.926186 189.078995,134.535583 
	C187.594376,146.696487 187.649643,159.041061 186.836746,171.292084 
	C186.683823,173.596558 185.642517,175.842087 184.717102,177.872009 
	C181.515091,163.441040 175.993546,150.295700 168.573685,137.907837 
z"/>
<path fill="#2C2C42" opacity="1.000000" stroke="none" 
	d="
M173.869690,452.100159 
	C170.211411,452.067261 166.551941,451.959229 162.895126,452.017883 
	C156.368393,452.122559 152.076767,456.429047 152.021881,463.037354 
	C151.950043,471.686401 152.024277,480.336639 152.084091,489.446320 
	C147.221893,487.469482 142.311264,485.032745 137.188583,481.863953 
	C136.984314,460.842255 136.992416,440.552673 136.998703,420.263062 
	C136.998962,419.431641 137.033783,418.595917 136.964783,417.769501 
	C136.583237,413.199127 133.419983,409.994202 129.390060,410.060913 
	C125.365204,410.127563 122.339455,413.357605 122.028961,417.989807 
	C121.940147,419.314667 122.001465,420.649811 122.000595,421.980255 
	C121.989494,438.943665 121.979599,455.907043 121.969391,472.870453 
	C109.736160,463.111328 97.502930,453.352173 85.448669,443.191772 
	C86.419502,440.859589 87.479393,438.993042 87.961266,436.987610 
	C92.221336,419.257965 96.693069,401.570465 100.482475,383.738800 
	C104.674629,364.011993 116.266342,350.605011 134.341675,342.168304 
	C140.141129,346.771729 145.329758,351.719391 151.254883,355.518280 
	C158.531891,360.183929 166.424057,363.890106 174.263550,368.008057 
	C174.476807,368.005035 174.904602,368.002441 174.933014,368.470215 
	C175.043839,396.075531 175.126266,423.213043 175.111679,450.614075 
	C174.633026,451.285095 174.251358,451.692627 173.869690,452.100159 
z"/>
<path fill="#212135" opacity="1.000000" stroke="none" 
	d="
M134.057434,342.003113 
	C116.266342,350.605011 104.674629,364.011993 100.482475,383.738800 
	C96.693069,401.570465 92.221336,419.257965 87.961266,436.987610 
	C87.479393,438.993042 86.419502,440.859589 85.275726,442.900940 
	C75.874550,432.539612 66.038483,422.633301 57.994469,411.439209 
	C49.737972,399.949432 43.233044,387.200989 35.944183,374.655884 
	C37.271404,371.917328 38.724564,369.580170 39.942490,367.126282 
	C46.563339,353.786682 53.024784,340.367096 59.740253,327.075623 
	C65.357468,315.957825 74.095627,308.210510 85.798630,303.776031 
	C93.992805,300.671143 102.107460,297.356415 110.625618,294.575684 
	C110.476227,314.453369 121.336609,328.186676 134.044891,341.246216 
	C134.049500,341.666718 134.053467,341.834900 134.057434,342.003113 
z"/>
<path fill="#212135" opacity="1.000000" stroke="none" 
	d="
M122.263748,473.055542 
	C121.979599,455.907043 121.989494,438.943665 122.000595,421.980255 
	C122.001465,420.649811 121.940147,419.314667 122.028961,417.989807 
	C122.339455,413.357605 125.365204,410.127563 129.390060,410.060913 
	C133.419983,409.994202 136.583237,413.199127 136.964783,417.769501 
	C137.033783,418.595917 136.998962,419.431641 136.998703,420.263062 
	C136.992416,440.552673 136.984314,460.842255 136.960297,481.608490 
	C132.148743,479.136963 127.353424,476.188812 122.263748,473.055542 
z"/>
<path fill="#64C0F4" opacity="1.000000" stroke="none" 
	d="
M342.728882,136.883621 
	C346.077057,130.839920 349.095764,124.581810 352.854919,118.805557 
	C357.802917,111.202507 363.333069,103.978302 368.669434,96.512070 
	C364.001373,93.136894 360.132599,90.339653 355.648773,87.097679 
	C360.957642,84.133446 365.132355,81.940796 369.159180,79.503769 
	C371.692505,77.970604 371.674347,76.202988 368.954163,74.685898 
	C358.485107,68.847107 351.401886,59.606632 344.483948,50.219666 
	C340.939056,45.409607 337.505096,40.517807 334.017365,35.312202 
	C352.965240,40.847088 370.612152,49.506386 387.453308,59.927231 
	C405.349365,71.000801 421.554810,84.206734 435.881378,99.539398 
	C448.767487,113.330528 460.046600,128.423691 469.465485,144.877365 
	C478.985199,161.507172 486.629059,178.887161 492.093445,197.263824 
	C496.586517,212.373978 500.358734,227.615662 500.957031,243.431961 
	C501.501862,257.833862 502.600494,272.302734 501.790588,286.648132 
	C500.432892,310.696289 494.968872,334.043060 486.086975,356.500000 
	C483.772552,362.351776 481.136627,368.076355 477.994629,374.038330 
	C469.866028,358.984283 462.384277,343.754608 454.918457,328.517059 
	C448.823029,316.076355 439.160828,307.725861 426.161285,303.025146 
	C418.075165,300.101166 410.095520,296.882599 402.018616,293.441254 
	C398.363586,280.863220 388.756073,275.079315 378.062378,270.060181 
	C373.910156,268.111328 369.847412,265.068939 366.944885,261.537567 
	C359.619934,252.625839 350.884216,246.761292 339.249603,245.607727 
	C329.350250,244.626205 320.161377,247.241943 311.042572,250.740768 
	C309.195648,246.261581 307.509735,242.110718 305.852448,237.583862 
	C306.244385,236.132477 306.404022,234.925415 307.001434,234.001389 
	C316.560944,219.215546 323.022583,203.145157 327.476624,186.064240 
	C335.108673,186.453156 339.398163,184.147980 341.589722,177.949585 
	C344.506866,169.698975 347.243958,161.367386 349.611755,152.945007 
	C351.768799,145.272186 349.255615,139.993988 342.728882,136.883621 
z"/>
<path fill="#2C2C42" opacity="1.000000" stroke="none" 
	d="
M402.068085,293.796265 
	C410.095520,296.882599 418.075165,300.101166 426.161285,303.025146 
	C439.160828,307.725861 448.823029,316.076355 454.918457,328.517059 
	C462.384277,343.754608 469.866028,358.984283 477.715118,374.283142 
	C470.402649,391.914215 459.864410,407.734436 447.823090,422.520264 
	C441.242737,430.600403 434.394745,438.640717 426.636993,445.540375 
	C416.151062,454.866425 404.674561,463.078644 393.312256,471.446899 
	C393.000549,454.971771 393.020416,438.818420 392.971832,422.665253 
	C392.965881,420.689941 392.850403,418.645782 392.337067,416.755402 
	C391.226013,412.664124 388.570740,409.661377 384.139282,410.350067 
	C379.922333,411.005402 377.903595,414.022400 377.938293,418.640564 
	C378.094635,439.455444 378.034271,460.271912 378.052002,481.087830 
	C373.267548,483.702820 368.483093,486.317810 363.338287,488.994446 
	C362.896179,481.068268 362.835175,473.080139 362.727295,465.092651 
	C362.605286,456.059296 358.534821,452.037018 349.529846,452.001892 
	C346.698547,451.990845 343.867096,452.008179 340.361938,451.876404 
	C339.388092,451.278259 339.088043,450.816254 338.830383,449.864075 
	C338.947479,422.250092 339.022186,395.126282 339.310181,368.003784 
	C339.523499,368.005096 339.950073,368.010803 340.328094,367.994812 
	C341.662109,367.712799 342.689270,367.590912 343.563690,367.159576 
	C363.937347,357.108917 381.140076,343.245453 393.738647,324.208099 
	C399.759766,315.109772 404.325775,305.307495 402.068085,293.796265 
z"/>
<path fill="#212135" opacity="1.000000" stroke="none" 
	d="
M378.400696,481.012299 
	C378.034271,460.271912 378.094635,439.455444 377.938293,418.640564 
	C377.903595,414.022400 379.922333,411.005402 384.139282,410.350067 
	C388.570740,409.661377 391.226013,412.664124 392.337067,416.755402 
	C392.850403,418.645782 392.965881,420.689941 392.971832,422.665253 
	C393.020416,438.818420 393.000549,454.971771 393.003357,471.601379 
	C388.253265,475.030701 383.501343,477.983734 378.400696,481.012299 
z"/>
<path fill="#FFBB99" opacity="1.000000" stroke="none" 
	d="
M327.043243,186.049683 
	C323.022583,203.145157 316.560944,219.215546 307.001434,234.001389 
	C306.404022,234.925415 306.244385,236.132477 305.526611,237.661774 
	C304.183350,238.962112 303.141174,239.754181 302.214417,240.663788 
	C296.062439,246.702011 290.414093,253.371780 283.690491,258.682190 
	C272.898529,267.205933 274.241882,267.300293 265.234894,256.015381 
	C253.068069,240.771500 246.994156,222.445084 243.192871,203.610153 
	C240.314758,189.349442 238.855576,174.788010 237.095947,160.320160 
	C235.520294,147.364990 235.936539,134.575531 240.606735,122.059219 
	C241.999649,118.326134 241.514847,113.892410 241.890396,109.779709 
	C241.890396,109.779709 241.939621,109.416626 241.984558,109.238998 
	C262.279388,103.423820 280.554962,94.590797 293.931427,75.829330 
	C294.854156,78.281570 295.727020,79.620079 295.824463,81.012833 
	C296.744507,94.164581 301.883911,105.629608 312.293823,113.406586 
	C325.546631,123.307449 329.425232,136.368210 328.912994,151.798767 
	C328.637024,160.112701 328.518860,168.431870 328.228882,177.580811 
	C327.766632,180.958511 327.404938,183.504105 327.043243,186.049683 
z"/>
<path fill="#FAA97C" opacity="1.000000" stroke="none" 
	d="
M327.476624,186.064240 
	C327.404938,183.504105 327.766632,180.958511 328.178345,177.965073 
	C331.276062,179.008408 331.648071,176.394135 332.122131,174.688812 
	C334.817719,164.991272 337.339203,155.245468 339.946136,145.523117 
	C340.672913,142.812714 341.488617,140.126175 342.496216,137.156158 
	C349.255615,139.993988 351.768799,145.272186 349.611755,152.945007 
	C347.243958,161.367386 344.506866,169.698975 341.589722,177.949585 
	C339.398163,184.147980 335.108673,186.453156 327.476624,186.064240 
z"/>
<path fill="#2C2C42" opacity="1.000000" stroke="none" 
	d="
M257.442932,452.089203 
	C235.523422,452.110901 214.072556,452.070526 191.918121,451.928467 
	C190.795975,451.242371 190.377365,450.658051 189.988220,449.601044 
	C190.041504,424.776215 190.065323,400.424042 190.472046,376.075928 
	C193.559799,376.884460 196.279251,377.643219 198.967178,378.500885 
	C216.291656,384.028992 234.032516,387.804108 252.147339,388.852051 
	C270.571259,389.917877 288.467133,385.715485 306.184601,381.074829 
	C312.122803,379.519470 318.003815,377.745667 323.928040,376.533295 
	C323.948730,401.278809 323.952301,425.562744 323.701355,450.006836 
	C323.060608,450.829224 322.674438,451.491486 322.288269,452.153717 
	C300.829346,452.111542 279.370453,452.069336 257.442932,452.089203 
z"/>
<path fill="#EAEEF0" opacity="1.000000" stroke="none" 
	d="
M322.172607,452.539795 
	C322.674438,451.491486 323.060608,450.829224 324.058899,449.974915 
	C329.524445,446.322357 334.209229,447.028931 338.787994,450.354218 
	C339.088043,450.816254 339.388092,451.278259 339.905396,451.918823 
	C340.665253,454.826843 341.207855,457.556366 341.518982,460.933777 
	C334.409546,470.812500 327.373047,470.628082 321.142212,461.053680 
	C321.447113,458.344421 321.752014,455.635162 322.172607,452.539795 
z"/>
<path fill="#C4D5E4" opacity="1.000000" stroke="none" 
	d="
M321.087219,461.513794 
	C327.373047,470.628082 334.409546,470.812500 341.480042,461.336060 
	C341.745697,465.217224 342.045715,469.355377 341.840637,473.468292 
	C341.502594,480.247192 337.029053,484.394806 330.731903,484.163971 
	C324.632965,483.940369 321.045746,479.810211 320.993073,472.883118 
	C320.965424,469.247040 321.016602,465.610352 321.087219,461.513794 
z"/>
<path fill="#EAEEF0" opacity="1.000000" stroke="none" 
	d="
M189.958740,450.073700 
	C190.377365,450.658051 190.795975,451.242371 191.430542,451.988464 
	C192.088715,454.830780 192.530945,457.511383 192.692841,460.854492 
	C190.421982,465.830383 187.397614,468.396240 182.298584,468.034424 
	C177.116318,467.666687 174.205643,464.697083 172.458649,460.158020 
	C172.870758,457.708710 173.282867,455.259430 173.782333,452.455139 
	C174.251358,451.692627 174.633026,451.285095 175.440903,450.474060 
	C180.565170,446.325989 185.262222,446.966858 189.958740,450.073700 
z"/>
<path fill="#C4D4E3" opacity="1.000000" stroke="none" 
	d="
M172.334671,460.596985 
	C174.205643,464.697083 177.116318,467.666687 182.298584,468.034424 
	C187.397614,468.396240 190.421982,465.830383 192.635712,461.274353 
	C192.913605,465.165680 193.049011,469.300568 193.004303,473.433441 
	C192.934677,479.869751 189.125259,484.003601 183.220108,484.219635 
	C177.347900,484.434479 172.751968,480.583405 172.238052,474.426575 
	C171.867996,469.993164 172.194748,465.501556 172.334671,460.596985 
z"/>
<path fill="#FFAA7B" opacity="1.000000" stroke="none" 
	d="
M241.497986,109.824478 
	C241.514847,113.892410 241.999649,118.326134 240.606735,122.059219 
	C235.936539,134.575531 235.520294,147.364990 237.095947,160.320160 
	C238.855576,174.788010 240.314758,189.349442 243.192871,203.610153 
	C246.994156,222.445084 253.068069,240.771500 265.234894,256.015381 
	C274.241882,267.300293 272.898529,267.205933 283.690491,258.682190 
	C290.414093,253.371780 296.062439,246.702011 302.214417,240.663788 
	C303.141174,239.754181 304.183350,238.962112 305.497986,238.037781 
	C307.509735,242.110718 309.195648,246.261581 311.051880,250.956131 
	C311.345490,251.789871 311.562164,251.963379 311.937134,252.372391 
	C314.576324,256.562012 315.413544,261.894531 321.139404,263.485840 
	C321.200745,265.718048 321.518951,267.759674 320.938812,269.502258 
	C316.565094,282.640076 308.778778,293.455383 297.667297,301.660980 
	C282.253937,313.043396 265.017029,317.410828 246.055237,313.713074 
	C252.526352,300.121826 257.014496,286.340546 258.476379,271.434357 
	C253.829361,270.264099 248.990616,270.087463 245.337311,267.916199 
	C236.823685,262.856354 228.539322,257.260223 220.830780,251.051193 
	C215.996445,247.157242 212.374817,241.757706 208.209091,237.033691 
	C204.416214,229.873062 200.062881,222.944870 196.972473,215.492920 
	C193.115433,206.192474 190.298538,196.460663 186.863556,186.173859 
	C186.133408,182.993332 185.572266,180.554077 185.011139,178.114807 
	C185.642517,175.842087 186.683823,173.596558 186.836746,171.292084 
	C187.649643,159.041061 187.594376,146.696487 189.078995,134.535583 
	C190.740479,120.926186 200.622818,113.410522 212.082748,106.683044 
	C212.559036,108.272209 213.018127,109.022446 212.959137,109.729462 
	C212.438690,115.969131 212.448990,116.154472 218.362106,114.971443 
	C225.978668,113.447609 233.527542,111.585602 241.497986,109.824478 
z"/>
<path fill="#2C2D43" opacity="1.000000" stroke="none" 
	d="
M134.044220,340.993896 
	C121.336609,328.186676 110.476227,314.453369 110.992119,294.564819 
	C115.665802,280.714264 126.006340,273.647369 138.658646,268.921997 
	C141.152466,267.990631 143.777420,266.102264 145.237579,263.917267 
	C157.437302,245.661484 176.787292,240.810745 198.950348,249.237534 
	C200.029251,249.647766 201.063599,250.175201 202.375229,251.038467 
	C202.491516,251.697708 202.279449,251.885361 201.796234,252.158066 
	C201.418030,252.619247 201.239151,252.914200 201.099213,253.142303 
	C201.138153,253.075455 201.267456,253.160416 200.893860,253.161285 
	C196.229767,255.238663 191.624268,256.957367 190.154053,262.214569 
	C190.128769,262.163086 190.237320,262.125885 190.000885,262.186371 
	C189.457535,262.374023 189.199051,262.566284 188.674988,262.976044 
	C181.912781,270.972992 179.323395,279.999176 180.039185,290.494812 
	C180.824493,296.319061 181.684464,301.708862 182.078827,307.080780 
	C173.654465,306.390900 168.311798,309.920044 163.946579,316.553528 
	C161.541870,320.207703 157.653275,324.053955 153.662506,325.258331 
	C144.719666,327.957123 137.758575,332.203308 134.044220,340.993896 
z"/>
<path fill="#F7996C" opacity="1.000000" stroke="none" 
	d="
M201.995575,251.991837 
	C202.279449,251.885361 202.491516,251.697708 202.670624,251.216125 
	C204.465927,246.586411 206.222366,242.169418 208.093964,237.393066 
	C212.374817,241.757706 215.996445,247.157242 220.830780,251.051193 
	C228.539322,257.260223 236.823685,262.856354 245.337311,267.916199 
	C248.990616,270.087463 253.829361,270.264099 258.476379,271.434357 
	C257.014496,286.340546 252.526352,300.121826 245.801117,313.798279 
	C245.318420,314.293762 245.146454,314.342682 244.584808,314.267090 
	C221.143066,309.248657 204.718704,296.075867 194.833252,274.692902 
	C192.890945,270.491547 190.987869,266.348541 193.998611,261.884827 
	C194.011581,261.920410 193.939621,261.943970 194.245300,262.017426 
	C195.049042,261.757416 195.547089,261.423950 196.358917,260.956604 
	C198.204269,258.268616 199.735870,255.714523 201.267456,253.160416 
	C201.267456,253.160416 201.138153,253.075455 201.370651,253.051758 
	C201.733963,252.682648 201.864761,252.337250 201.995575,251.991837 
z"/>
<path fill="#F4996D" opacity="1.000000" stroke="none" 
	d="
M184.717102,177.872009 
	C185.572266,180.554077 186.133408,182.993332 186.822647,185.789734 
	C177.654282,186.476547 173.420578,182.896301 171.122787,173.909744 
	C169.404144,167.188232 166.743271,160.713394 164.731033,154.059448 
	C162.999847,148.334778 163.223434,142.862152 168.309891,138.179260 
	C175.993546,150.295700 181.515091,163.441040 184.717102,177.872009 
z"/>
<path fill="#404152" opacity="1.000000" stroke="none" 
	d="
M134.044891,341.246216 
	C137.758575,332.203308 144.719666,327.957123 153.662506,325.258331 
	C157.653275,324.053955 161.541870,320.207703 163.946579,316.553528 
	C168.311798,309.920044 173.654465,306.390900 182.235260,307.385803 
	C186.774796,322.112854 194.166016,334.646820 203.949387,345.743317 
	C217.782654,361.433289 234.205353,373.601379 253.873627,381.113464 
	C253.879807,381.092621 253.865753,381.121735 254.027496,381.388184 
	C254.785110,381.792877 255.380997,381.931152 256.230469,382.270050 
	C257.124329,382.386169 257.822235,382.438843 258.396576,382.197510 
	C287.235504,370.077698 310.593109,351.661438 325.064240,323.344208 
	C330.386963,312.928711 334.383575,301.998901 334.159851,289.543030 
	C334.054169,279.376923 332.680603,270.053162 324.993469,262.593475 
	C321.724182,257.378174 317.607788,253.667099 311.872192,252.020355 
	C311.562164,251.963379 311.345490,251.789871 311.212860,251.284454 
	C320.161377,247.241943 329.350250,244.626205 339.249603,245.607727 
	C350.884216,246.761292 359.619934,252.625839 366.944885,261.537567 
	C369.847412,265.068939 373.910156,268.111328 378.062378,270.060181 
	C388.756073,275.079315 398.363586,280.863220 402.018616,293.441254 
	C404.325775,305.307495 399.759766,315.109772 393.738647,324.208099 
	C381.140076,343.245453 363.937347,357.108917 343.563690,367.159576 
	C342.689270,367.590912 341.662109,367.712799 340.514404,367.703369 
	C345.583130,361.048798 346.340149,356.171509 343.042938,350.158234 
	C339.811432,344.264893 334.471893,343.402405 328.506195,344.027313 
	C324.116943,344.487122 318.956421,349.250427 318.123718,353.581421 
	C316.850220,360.204834 318.989014,365.499786 323.938049,368.377441 
	C323.942139,371.242493 323.926544,373.657135 323.910950,376.071747 
	C318.003815,377.745667 312.122803,379.519470 306.184601,381.074829 
	C288.467133,385.715485 270.571259,389.917877 252.147339,388.852051 
	C234.032516,387.804108 216.291656,384.028992 198.967178,378.500885 
	C196.279251,377.643219 193.559799,376.884460 190.444855,375.621246 
	C190.050415,372.750671 190.066086,370.338776 190.420898,367.877869 
	C196.624588,363.661652 198.117935,354.773315 193.854324,349.411774 
	C188.848846,343.117218 179.450760,341.758728 173.988159,346.540100 
	C167.328384,352.369293 167.348938,359.468628 174.050293,368.011047 
	C166.424057,363.890106 158.531891,360.183929 151.254883,355.518280 
	C145.329758,351.719391 140.141129,346.771729 134.341675,342.168304 
	C134.053467,341.834900 134.049500,341.666718 134.044891,341.246216 
z"/>
<path fill="#545460" opacity="1.000000" stroke="none" 
	d="
M190.081741,367.926910 
	C190.066086,370.338776 190.050415,372.750671 190.061951,375.617188 
	C190.065323,400.424042 190.041504,424.776215 189.988220,449.601044 
	C185.262222,446.966858 180.565170,446.325989 175.537903,450.210571 
	C175.126266,423.213043 175.043839,396.075531 174.974777,368.020203 
	C175.041107,364.633392 174.812103,362.117950 175.208969,359.705505 
	C175.915390,355.411224 178.632370,353.039337 183.067200,353.038116 
	C186.888123,353.037048 189.806320,356.225220 190.000671,360.516083 
	C190.112396,362.982513 190.060165,365.456390 190.081741,367.926910 
z"/>
<path fill="#2D2D43" opacity="1.000000" stroke="none" 
	d="
M190.420898,367.877869 
	C190.060165,365.456390 190.112396,362.982513 190.000671,360.516083 
	C189.806320,356.225220 186.888123,353.037048 183.067200,353.038116 
	C178.632370,353.039337 175.915390,355.411224 175.208969,359.705505 
	C174.812103,362.117950 175.041107,364.633392 174.946365,367.552429 
	C174.904602,368.002441 174.476807,368.005035 174.263550,368.008057 
	C167.348938,359.468628 167.328384,352.369293 173.988159,346.540100 
	C179.450760,341.758728 188.848846,343.117218 193.854324,349.411774 
	C198.117935,354.773315 196.624588,363.661652 190.420898,367.877869 
z"/>
<path fill="#545460" opacity="1.000000" stroke="none" 
	d="
M323.928040,376.533295 
	C323.926544,373.657135 323.942139,371.242493 323.955048,367.930359 
	C323.961670,364.891083 323.902954,362.746429 323.994537,360.608215 
	C324.179779,356.284088 327.031281,353.167267 330.840851,353.015533 
	C335.045959,352.848022 338.404816,355.700562 338.864594,360.104034 
	C339.137360,362.716431 339.032135,365.368317 339.096893,368.002441 
	C339.022186,395.126282 338.947479,422.250092 338.830383,449.864075 
	C334.209229,447.028931 329.524445,446.322357 324.313477,449.814758 
	C323.952301,425.562744 323.948730,401.278809 323.928040,376.533295 
z"/>
<path fill="#2D2D43" opacity="1.000000" stroke="none" 
	d="
M339.310181,368.003784 
	C339.032135,365.368317 339.137360,362.716431 338.864594,360.104034 
	C338.404816,355.700562 335.045959,352.848022 330.840851,353.015533 
	C327.031281,353.167267 324.179779,356.284088 323.994537,360.608215 
	C323.902954,362.746429 323.961670,364.891083 323.935364,367.479919 
	C318.989014,365.499786 316.850220,360.204834 318.123718,353.581421 
	C318.956421,349.250427 324.116943,344.487122 328.506195,344.027313 
	C334.471893,343.402405 339.811432,344.264893 343.042938,350.158234 
	C346.340149,356.171509 345.583130,361.048798 340.136353,367.719330 
	C339.950073,368.010803 339.523499,368.005096 339.310181,368.003784 
z"/>
<path fill="#C2D4E5" opacity="1.000000" stroke="none" 
	d="
M325.062866,262.929199 
	C332.680603,270.053162 334.054169,279.376923 333.910065,289.771851 
	C333.173401,290.994476 332.804474,291.544891 332.448730,292.103760 
	C312.849304,322.891785 285.311707,338.152710 248.399704,335.062286 
	C244.943390,334.772919 241.492874,334.414215 238.033508,333.831238 
	C238.023834,333.403687 238.020325,333.232666 238.080582,332.678467 
	C240.421066,326.327362 242.697784,320.359467 244.974487,314.391571 
	C245.146454,314.342682 245.318420,314.293762 245.744507,314.159637 
	C265.017029,317.410828 282.253937,313.043396 297.667297,301.660980 
	C308.778778,293.455383 316.565094,282.640076 320.938812,269.502258 
	C321.518951,267.759674 321.200745,265.718048 321.544189,263.423615 
	C322.880829,262.997955 323.971832,262.963593 325.062866,262.929199 
z"/>
<path fill="#18424F" opacity="1.000000" stroke="none" 
	d="
M324.993469,262.593475 
	C323.971832,262.963593 322.880829,262.997955 321.385040,263.094543 
	C315.413544,261.894531 314.576324,256.562012 311.937134,252.372391 
	C317.607788,253.667099 321.724182,257.378174 324.993469,262.593475 
z"/>
<path fill="#C1D3E5" opacity="1.000000" stroke="none" 
	d="
M238.016815,333.061646 
	C238.020325,333.232666 238.023834,333.403687 238.012131,334.245300 
	C236.063187,348.379303 239.865662,360.328094 247.506546,371.303741 
	C249.735260,374.505127 251.753021,377.853394 253.867462,381.134338 
	C234.205353,373.601379 217.782654,361.433289 203.949387,345.743317 
	C194.166016,334.646820 186.774796,322.112854 182.700882,307.403625 
	C181.684464,301.708862 180.824493,296.319061 180.270264,290.728027 
	C186.918762,301.899872 195.343735,311.558838 205.880325,319.082581 
	C215.516815,325.963593 225.845566,331.765564 238.016815,333.061646 
z"/>
<path fill="#9AB8D9" opacity="1.000000" stroke="none" 
	d="
M238.080582,332.678467 
	C225.845566,331.765564 215.516815,325.963593 205.880325,319.082581 
	C195.343735,311.558838 186.918762,301.899872 180.344940,290.293579 
	C179.323395,279.999176 181.912781,270.972992 188.946899,263.007812 
	C189.767624,262.633392 190.002472,262.379639 190.237335,262.125885 
	C190.237320,262.125885 190.128769,262.163086 190.530487,262.140320 
	C191.950012,262.028137 192.967834,261.938721 193.985641,261.849304 
	C190.987869,266.348541 192.890945,270.491547 194.833252,274.692902 
	C204.718704,296.075867 221.143066,309.248657 244.584808,314.267090 
	C242.697784,320.359467 240.421066,326.327362 238.080582,332.678467 
z"/>
<path fill="#143F4D" opacity="1.000000" stroke="none" 
	d="
M193.998611,261.884857 
	C192.967834,261.938721 191.950012,262.028137 190.555756,262.191803 
	C191.624268,256.957367 196.229767,255.238663 200.893860,253.161285 
	C199.735870,255.714523 198.204269,258.268616 196.042450,260.908447 
	C194.921371,261.310760 194.430496,261.627380 193.939621,261.943970 
	C193.939621,261.943970 194.011581,261.920410 193.998611,261.884857 
z"/>
<path fill="#143F4D" opacity="1.000000" stroke="none" 
	d="
M201.796234,252.158066 
	C201.864761,252.337250 201.733963,252.682648 201.331726,253.118591 
	C201.239151,252.914200 201.418030,252.619247 201.796234,252.158066 
z"/>
<path fill="#143F4D" opacity="1.000000" stroke="none" 
	d="
M190.000885,262.186371 
	C190.002472,262.379639 189.767624,262.633392 189.260864,262.855347 
	C189.199051,262.566284 189.457535,262.374023 190.000885,262.186371 
z"/>
<path fill="#9AB8D9" opacity="1.000000" stroke="none" 
	d="
M194.245300,262.017426 
	C194.430496,261.627380 194.921371,261.310760 195.728699,261.042297 
	C195.547089,261.423950 195.049042,261.757416 194.245300,262.017426 
z"/>
<path fill="#EAEFF1" opacity="1.000000" stroke="none" 
	d="
M253.873642,381.113464 
	C251.753021,377.853394 249.735260,374.505127 247.506546,371.303741 
	C239.865662,360.328094 236.063187,348.379303 238.018280,334.501801 
	C241.492874,334.414215 244.943390,334.772919 248.399704,335.062286 
	C285.311707,338.152710 312.849304,322.891785 332.448730,292.103760 
	C332.804474,291.544891 333.173401,290.994476 333.785980,290.211273 
	C334.383575,301.998901 330.386963,312.928711 325.064240,323.344208 
	C310.593109,351.661438 287.235504,370.077698 258.396576,382.197510 
	C257.822235,382.438843 257.124329,382.386169 256.035522,382.031372 
	C255.013229,381.435272 254.439484,381.278503 253.865753,381.121735 
	C253.865753,381.121735 253.879807,381.092621 253.873642,381.113464 
z"/>
<path fill="#C1D3E5" opacity="1.000000" stroke="none" 
	d="
M254.027496,381.388184 
	C254.439484,381.278503 255.013229,381.435272 255.781921,381.830750 
	C255.380997,381.931152 254.785110,381.792877 254.027496,381.388184 
z"/>
</svg>